<svg xmlns="http://www.w3.org/2000/svg" width="22" height="22" viewBox="0 0 22 22">
    <path d="M0 0v22h22V0zm2 2h18v18H2zm2 4.37v8.61h4.18c1.56-.01 3.03-.76 3.03-2.51a2.227 2.227 0 00-1.57-2.31 1.687 1.687 0 001.17-1.66c0-1.72-1.27-2.13-2.75-2.13zm9.14.63v.85h3.48V7zm-7.24.69h1.78c.67 0 1.29.19 1.29.98 0 .73-.48 1.03-1.16 1.03H5.9zm9.06.74a3.118 3.118 0 00-3.18 3.29A3.035 3.035 0 0014.96 15a2.777 2.777 0 002.92-2.1h-1.51a1.421 1.421 0 01-1.35.81 1.405 1.405 0 01-1.53-1.58h4.49c.01-.1.02-.22.02-.33a3.064 3.064 0 00-3.04-3.37zm-.06 1.28a1.278 1.278 0 011.37 1.34h-2.78a1.332 1.332 0 011.41-1.34zm-9.01 1.42h2.07c.83 0 1.36.35 1.36 1.24 0 .86-.63 1.13-1.4 1.13H5.89v-2.37z"/>
</svg>
