<svg xmlns="http://www.w3.org/2000/svg" width="90.695" height="16.263" viewBox="0 0 90.695 16.263">
    <path d="M45.786.007a7.856 7.856 0 00-8.145 8.1 7.872 7.872 0 008.145 8.122 7.786 7.786 0 008.128-8.122 7.818 7.818 0 00-8.128-8.1zm0 13.19c-2.9 0-4.693-2.31-4.693-5.087 0-2.755 1.8-5.027 4.693-5.027 2.958 0 4.673 2.272 4.673 5.027 0 2.776-1.716 5.088-4.673 5.088zM1.426 7.155h1.529V1.691h1.416V.477H.007v1.215h1.416v5.464zm6-2.813h2.415v2.813h1.529V.477H9.841v2.659H7.426V.477H5.9v6.68h1.53V4.342zM0 16.245h17.968v-1.718H0zM63.754.007a7.856 7.856 0 00-8.145 8.1 7.872 7.872 0 008.145 8.122 7.786 7.786 0 008.128-8.122 7.818 7.818 0 00-8.128-8.1zm0 13.19c-2.9 0-4.693-2.31-4.693-5.087 0-2.755 1.8-5.027 4.693-5.027 2.958 0 4.673 2.272 4.673 5.027 0 2.776-1.716 5.088-4.673 5.088zM17.7 5.887h-2.658v-1.54h2.172V3.141h-2.172V1.686h2.45V.477h-3.979v6.68H17.7V5.89zm64.991 2.375l-8.234-8.2v16.183h3.624V7.766l4.549 4.718 4.427-4.678v8.439H90.7V.007zM35.427 4.834c0-3.266-2.567-4.816-6.005-4.816h-5.445v16.245h3.508v-6.75l5.145 6.75h4.62l-5.2-6.986a4.25 4.25 0 003.375-4.441zm-6.146 2.3h-1.785v-4.52h1.763c1.98 0 2.708.977 2.708 2.09s-.548 2.43-2.688 2.43z"
          fill="#fff" fill-rule="evenodd"/>
</svg>
